<?xml version="1.0" encoding="utf-8"?>
<!-- Generator: Adobe Illustrator 24.2.1, SVG Export Plug-In . SVG Version: 6.00 Build 0)  -->
<svg version="1.1" id="Layer_1" xmlns="http://www.w3.org/2000/svg" xmlns:xlink="http://www.w3.org/1999/xlink" x="0px" y="0px"
	 viewBox="0 0 50 50" style="enable-background:new 0 0 50 50;" xml:space="preserve">
<style type="text/css">
	.st0{fill:#603813;}
</style>
<g>
	<path class="st0" d="M30.6,10H19.4c-5.2,0-9.4,4.2-9.4,9.4v11.2c0,5.2,4.2,9.4,9.4,9.4h11.2c5.2,0,9.4-4.2,9.4-9.4V19.4
		C40,14.2,35.8,10,30.6,10z M37.2,30.6c0,3.6-2.9,6.5-6.6,6.6H19.4c-3.6,0-6.6-2.9-6.6-6.6V19.4c0-3.6,2.9-6.6,6.6-6.6h11.2
		c3.6,0,6.6,2.9,6.6,6.6C37.2,19.4,37.2,30.6,37.2,30.6z"/>
	<path class="st0" d="M25,17.5c-4.1,0-7.5,3.4-7.5,7.5s3.4,7.5,7.5,7.5s7.5-3.4,7.5-7.5S29.1,17.5,25,17.5z M25,29.7
		c-2.6,0-4.7-2.1-4.7-4.7s2.1-4.7,4.7-4.7s4.7,2.1,4.7,4.7l0,0C29.7,27.6,27.6,29.7,25,29.7z"/>
	<circle class="st0" cx="33.1" cy="16.9" r="1"/>
</g>
</svg>
